<?xml version="1.0" encoding="UTF-8"?>
<svg id="Layer_1" data-name="Layer 1" xmlns="http://www.w3.org/2000/svg" version="1.1" viewBox="0 0 24 24">
  <defs>
    <style>
      .cls-1 {
        fill: #24f29c;
        stroke-width: 0px;
      }
    </style>
  </defs>
  <path class="cls-1" d="M10.4,4.1c-.3-.2-.8-.1-1.1.1l-4.7,3.8h-2.7c-1.1,0-2,.9-2,2v4c0,1.1.9,2,2,2h2.7l4.7,3.8c.2.1.4.2.6.2s.3,0,.4-.1c.3-.2.6-.5.6-.9V5c0-.4-.2-.7-.6-.9ZM2,14v-4h3v4h-3ZM9,16.9l-3-2.4v-5l3-2.4v9.8Z"/>
  <path class="cls-1" d="M20.2,9.5l-.7-.7-2.5,2.5-2.5-2.5-.7.7,2.5,2.5-2.5,2.5.7.7,2.5-2.5,2.5,2.5.7-.7-2.5-2.5,2.5-2.5Z"/>
</svg>