<?xml version="1.0" encoding="UTF-8"?>
<svg id="Layer_1" data-name="Layer 1" xmlns="http://www.w3.org/2000/svg" version="1.1" viewBox="0 0 24 24">
  <defs>
    <style>
      .cls-1 {
        fill: #24f29c;
        stroke-width: 0px;
      }
    </style>
  </defs>
  <path class="cls-1" d="M10.4,4.1c-.3-.2-.8-.1-1.1.1l-4.7,3.8h-2.7c-1.1,0-2,.9-2,2v4c0,1.1.9,2,2,2h2.7l4.7,3.8c.2.1.4.2.6.2s.3,0,.4-.1c.3-.2.6-.5.6-.9V5c0-.4-.2-.7-.6-.9ZM2,14v-4h3v4h-3ZM9,16.9l-3-2.4v-5l3-2.4v9.8Z"/>
  <path class="cls-1" d="M17.1,4.6l-.4-.3-.6.8.4.3c2.2,1.5,3.5,4,3.5,6.6s-1.3,5.1-3.5,6.6l-.4.3.6.8.4-.3c2.5-1.7,3.9-4.5,3.9-7.4s-1.5-5.7-3.9-7.4h0Z"/>
  <path class="cls-1" d="M18,12c0-2-1-3.8-2.6-4.9l-.4-.3-.6.8.4.3c1.4.9,2.2,2.5,2.2,4.1s-.8,3.2-2.2,4.1l-.4.3.6.8.4-.3c1.6-1.1,2.6-3,2.6-4.9h0Z"/>
  <path class="cls-1" d="M13.7,9.5l-.4-.3-.6.8.4.3c.5.4.9,1,.9,1.6s-.3,1.3-.9,1.6l-.4.3.6.8.4-.3c.8-.6,1.3-1.5,1.3-2.5,0-1-.5-1.9-1.3-2.5h0Z"/>
</svg>